<svg width="393" height="852" viewBox="0 0 393 852" fill="none" xmlns="http://www.w3.org/2000/svg">
<g clip-path="url(#clip0_155_22)">
<rect y="85" width="393" height="823" fill="#D2BDB3"/>
<g clip-path="url(#clip1_155_22)">
<g clip-path="url(#clip2_155_22)">
<path d="M-266 67.81C-219.194 67.81 -172.389 63.0083 -125.583 53.405C-31.9722 34.1983 61.6389 34.1983 155.25 53.405C202.056 63.0083 248.861 67.81 295.667 67.81C342.472 67.81 389.278 63.0083 436.083 53.405C529.694 34.1983 623.306 34.1983 716.917 53.405C763.722 63.0083 810.528 67.81 857.333 67.81C904.139 67.81 950.944 63.0083 997.75 53.405C1091.36 34.1983 1184.97 34.1983 1278.58 53.405C1325.39 63.0083 1372.19 67.81 1419 67.81L857.333 106H-266V67.81Z" fill="#D2BDB3" fill-opacity="0.3"/>
</g>
<path d="M-302 77.4116C-271.417 77.4116 -240.833 70.0692 -210.25 55.3842C-149.083 26.0143 -87.9167 26.0143 -26.75 55.3842C3.83334 70.0692 34.4167 77.4116 65 77.4116C95.5833 77.4116 126.167 70.0692 156.75 55.3842C217.917 26.0143 279.083 26.0143 340.25 55.3842C370.833 70.0692 401.417 77.4116 432 77.4116C462.583 77.4116 493.167 70.0692 523.75 55.3842C584.917 26.0143 646.083 26.0143 707.25 55.3842C737.833 70.0692 768.417 77.4116 799 77.4116L556.78 135.81H-177.22L-302 77.4116Z" fill="#D2BDB3"/>
</g>
</g>
<defs>
<clipPath id="clip0_155_22">
<rect width="393" height="852" fill="white"/>
</clipPath>
<clipPath id="clip1_155_22">
<rect width="734" height="102.453" fill="white" transform="translate(-154)"/>
</clipPath>
<clipPath id="clip2_155_22">
<rect width="1440" height="100" fill="white" transform="translate(-233.22 28)"/>
</clipPath>
</defs>
</svg>
