<?xml version="1.0" encoding="UTF-8" standalone="no"?>
<!DOCTYPE svg PUBLIC "-//W3C//DTD SVG 1.1//EN" "http://www.w3.org/Graphics/SVG/1.1/DTD/svg11.dtd">
<svg width="100%" height="100%" viewBox="0 0 1200 136" version="1.1" xmlns="http://www.w3.org/2000/svg" xmlns:xlink="http://www.w3.org/1999/xlink" xml:space="preserve" xmlns:serif="http://www.serif.com/" style="fill-rule:evenodd;clip-rule:evenodd;stroke-linejoin:round;stroke-miterlimit:1.5;">
    <g id="横長ロゴ_ol" transform="matrix(1,0,0,0.113333,0,0)">
        <rect x="0" y="0" width="1200" height="1200" style="fill:none;"/>
        <g transform="matrix(1.576749,0,0,13.930039,-89.756451,-2576.024824)">
            <path d="M67.309,261.404L67.309,258.13C70.295,258.015 72.52,257.714 73.985,257.225C75.449,256.737 76.426,255.804 76.914,254.426C77.402,253.047 77.646,251.009 77.646,248.31L77.646,208.166C77.646,205.467 77.445,203.442 77.043,202.093C76.641,200.743 75.823,199.81 74.588,199.293C73.353,198.776 71.501,198.46 69.031,198.346L69.031,195.072L94.789,195.072C102.542,195.072 108.572,196.465 112.879,199.25C117.186,202.035 119.34,205.955 119.34,211.009C119.34,214.684 118.12,217.742 115.679,220.183C113.238,222.624 109.491,224.591 104.437,226.084L104.437,226.429C108.17,226.716 111.659,227.534 114.904,228.884C118.148,230.233 120.776,232.129 122.786,234.569C124.796,237.01 125.801,240.04 125.801,243.658C125.801,246.874 124.968,249.817 123.303,252.488C121.637,255.158 119.455,257.211 116.756,258.647C114.803,259.681 112.434,260.398 109.649,260.8C106.863,261.203 103.087,261.404 98.321,261.404L67.309,261.404ZM98.493,257.699C108.945,257.699 114.171,253.306 114.171,244.519C114.171,241.188 113.468,238.331 112.061,235.948C110.654,233.564 108.716,231.798 106.246,230.65C104.466,229.788 102.326,229.243 99.828,229.013C97.33,228.783 94.243,228.668 90.568,228.668L86.691,228.668L86.691,247.879C86.691,251.382 87.61,253.895 89.448,255.416C91.286,256.938 94.301,257.699 98.493,257.699ZM86.691,224.361L91.515,224.361C95.248,224.361 97.976,224.175 99.699,223.801C101.422,223.428 102.743,222.954 103.662,222.38C105.155,221.461 106.332,220.083 107.194,218.245C108.055,216.407 108.486,214.11 108.486,211.353C108.486,207.218 107.38,204.146 105.169,202.136C102.958,200.126 99.498,199.121 94.789,199.121L88.156,199.121C87.179,199.121 86.691,199.609 86.691,200.585L86.691,224.361Z" style="fill:rgb(43,43,43);fill-rule:nonzero;"/>
            <path d="M146.986,195.061L146.986,248.934C146.986,251.599 147.146,253.61 147.466,254.969C147.785,256.328 148.465,257.247 149.504,257.727C150.543,258.206 152.075,258.499 154.1,258.606L154.1,261.404L132.039,261.404L132.039,258.606C134.17,258.499 135.769,258.206 136.835,257.727C137.901,257.247 138.62,256.368 138.993,255.089C139.366,253.81 139.552,251.945 139.552,249.494L139.552,215.043C139.552,212.166 139.512,209.755 139.433,207.81C139.353,205.865 139.233,204.546 139.073,203.853C138.806,202.627 138.18,201.801 137.194,201.375C136.209,200.949 134.437,200.736 131.879,200.736L131.879,198.018L146.986,195.061Z" style="fill:rgb(43,43,43);fill-rule:nonzero;"/>
            <path d="M182.396,218.241C185.433,218.241 188.311,218.774 191.028,219.839C193.746,220.905 196.13,222.41 198.182,224.355C200.234,226.3 201.859,228.592 203.058,231.229C204.257,233.867 204.856,236.758 204.856,239.902C204.856,243.153 204.257,246.137 203.058,248.854C201.859,251.572 200.234,253.93 198.182,255.928C196.13,257.926 193.746,259.472 191.028,260.564C188.311,261.657 185.433,262.203 182.396,262.203C179.411,262.203 176.587,261.657 173.923,260.564C171.259,259.472 168.901,257.926 166.849,255.928C164.797,253.93 163.185,251.572 162.013,248.854C160.841,246.137 160.255,243.153 160.255,239.902C160.255,235.692 161.267,231.962 163.292,228.712C165.317,225.461 168.008,222.903 171.365,221.038C174.722,219.173 178.399,218.241 182.396,218.241ZM182.396,222.077C179.785,222.077 177.493,222.823 175.522,224.315C173.55,225.807 172.018,227.899 170.925,230.59C169.833,233.281 169.287,236.412 169.287,239.982C169.287,245.471 170.473,249.867 172.844,253.171C175.215,256.474 178.399,258.126 182.396,258.126C186.499,258.126 189.763,256.474 192.187,253.171C194.612,249.867 195.824,245.471 195.824,239.982C195.824,236.412 195.265,233.294 194.145,230.63C193.026,227.966 191.468,225.874 189.47,224.355C187.471,222.837 185.113,222.077 182.396,222.077Z" style="fill:rgb(43,43,43);fill-rule:nonzero;"/>
            <path d="M234.83,218.241C237.868,218.241 240.745,218.774 243.463,219.839C246.181,220.905 248.565,222.41 250.617,224.355C252.668,226.3 254.294,228.592 255.493,231.229C256.692,233.867 257.291,236.758 257.291,239.902C257.291,243.153 256.692,246.137 255.493,248.854C254.294,251.572 252.668,253.93 250.617,255.928C248.565,257.926 246.181,259.472 243.463,260.564C240.745,261.657 237.868,262.203 234.83,262.203C231.846,262.203 229.022,261.657 226.358,260.564C223.693,259.472 221.335,257.926 219.284,255.928C217.232,253.93 215.62,251.572 214.448,248.854C213.276,246.137 212.69,243.153 212.69,239.902C212.69,235.692 213.702,231.962 215.727,228.712C217.752,225.461 220.443,222.903 223.8,221.038C227.157,219.173 230.834,218.241 234.83,218.241ZM234.83,222.077C232.219,222.077 229.928,222.823 227.956,224.315C225.985,225.807 224.453,227.899 223.36,230.59C222.268,233.281 221.722,236.412 221.722,239.982C221.722,245.471 222.907,249.867 225.279,253.171C227.65,256.474 230.834,258.126 234.83,258.126C238.934,258.126 242.197,256.474 244.622,253.171C247.047,249.867 248.259,245.471 248.259,239.982C248.259,236.412 247.699,233.294 246.58,230.63C245.461,227.966 243.903,225.874 241.904,224.355C239.906,222.837 237.548,222.077 234.83,222.077Z" style="fill:rgb(43,43,43);fill-rule:nonzero;"/>
            <path d="M278.953,238.463L278.953,248.615C278.953,251.545 279.072,253.703 279.312,255.089C279.552,256.474 280.138,257.367 281.071,257.767C282.003,258.166 283.482,258.446 285.507,258.606L285.507,261.404L264.245,261.404L264.245,258.606C266.323,258.446 267.842,258.166 268.801,257.767C269.76,257.367 270.387,256.514 270.68,255.209C270.973,253.903 271.119,251.918 271.119,249.254L271.119,239.023C271.119,235.985 271.079,233.441 270.999,231.389C270.919,229.338 270.773,227.966 270.56,227.273C270.293,225.887 269.76,225.008 268.961,224.635C268.162,224.262 266.537,224.076 264.085,224.076L264.085,221.278L277.114,218.241L278.153,226.234L278.553,226.234C280.951,223.516 283.469,221.504 286.106,220.199C288.744,218.893 291.662,218.241 294.859,218.241C298.216,218.241 301.054,218.933 303.372,220.319C305.69,221.704 307.275,223.649 308.127,226.154L308.447,226.154C310.419,223.649 312.83,221.704 315.681,220.319C318.532,218.933 321.529,218.241 324.673,218.241C327.178,218.241 329.456,218.654 331.507,219.48C333.559,220.306 335.118,221.438 336.183,222.877C337.142,224.102 337.822,225.714 338.222,227.712C338.621,229.711 338.821,232.442 338.821,235.905L338.821,248.615C338.821,251.545 338.954,253.69 339.221,255.049C339.487,256.408 340.087,257.3 341.019,257.727C341.952,258.153 343.43,258.446 345.455,258.606L345.455,261.404L324.194,261.404L324.194,258.606C326.219,258.499 327.711,258.233 328.67,257.807C329.629,257.38 330.255,256.514 330.548,255.209C330.841,253.903 330.988,251.918 330.988,249.254L330.988,239.183C330.988,233.055 330.295,228.765 328.91,226.314C327.524,223.862 325.1,222.637 321.636,222.637C319.344,222.637 317.16,223.29 315.081,224.595C313.003,225.901 311.378,227.646 310.206,229.831C309.833,230.523 309.553,231.216 309.366,231.909C309.18,232.602 309.047,233.441 308.967,234.427C308.887,235.413 308.847,236.758 308.847,238.463L308.847,248.615C308.847,251.545 308.98,253.69 309.246,255.049C309.513,256.408 310.112,257.3 311.045,257.727C311.977,258.153 313.483,258.446 315.561,258.606L315.561,261.404L294.299,261.404L294.299,258.606C296.324,258.446 297.816,258.166 298.775,257.767C299.735,257.367 300.347,256.514 300.614,255.209C300.88,253.903 301.014,251.918 301.014,249.254L301.014,239.183C301.014,235.026 300.72,231.749 300.134,229.351C299.548,226.953 298.589,225.235 297.257,224.196C295.925,223.156 294.113,222.637 291.821,222.637C289.477,222.637 287.239,223.29 285.107,224.595C282.976,225.901 281.377,227.646 280.311,229.831C279.938,230.523 279.659,231.216 279.472,231.909C279.286,232.602 279.152,233.441 279.072,234.427C278.993,235.413 278.953,236.758 278.953,238.463Z" style="fill:rgb(43,43,43);fill-rule:nonzero;"/>
            <path d="M363.919,195.061L363.919,248.934C363.919,251.599 364.079,253.61 364.399,254.969C364.719,256.328 365.398,257.247 366.437,257.727C367.476,258.206 369.008,258.499 371.033,258.606L371.033,261.404L348.972,261.404L348.972,258.606C351.104,258.499 352.702,258.206 353.768,257.727C354.834,257.247 355.553,256.368 355.926,255.089C356.299,253.81 356.486,251.945 356.486,249.494L356.486,215.043C356.486,212.166 356.446,209.755 356.366,207.81C356.286,205.865 356.166,204.546 356.006,203.853C355.74,202.627 355.114,201.801 354.128,201.375C353.142,200.949 351.37,200.736 348.812,200.736L348.812,198.018L363.919,195.061Z" style="fill:rgb(43,43,43);fill-rule:nonzero;"/>
            <path d="M391.576,218.241L391.576,248.694C391.576,251.412 391.762,253.477 392.135,254.889C392.508,256.301 393.228,257.247 394.293,257.727C395.359,258.206 396.931,258.499 399.009,258.606L399.009,261.404L376.069,261.404L376.069,258.606C378.254,258.499 379.892,258.193 380.985,257.687C382.077,257.18 382.81,256.275 383.183,254.969C383.556,253.663 383.742,251.758 383.742,249.254L383.742,239.023C383.742,235.932 383.702,233.374 383.623,231.349C383.543,229.324 383.396,227.966 383.183,227.273C382.97,226.047 382.37,225.208 381.384,224.755C380.399,224.302 378.574,224.076 375.909,224.076L375.909,221.278L391.576,218.241ZM382.384,202.015C382.384,200.629 382.863,199.457 383.822,198.498C384.782,197.538 385.954,197.059 387.339,197.059C388.725,197.059 389.897,197.538 390.856,198.498C391.815,199.457 392.295,200.629 392.295,202.015C392.295,203.4 391.815,204.572 390.856,205.532C389.897,206.491 388.725,206.97 387.339,206.97C385.954,206.97 384.782,206.491 383.822,205.532C382.863,204.572 382.384,203.4 382.384,202.015Z" style="fill:rgb(43,43,43);fill-rule:nonzero;"/>
            <path d="M418.033,238.144L418.033,248.854C418.033,251.732 418.153,253.837 418.393,255.169C418.632,256.501 419.232,257.38 420.191,257.807C421.15,258.233 422.642,258.526 424.667,258.686L424.667,261.404L403.725,261.404L403.725,258.686C405.697,258.526 407.162,258.246 408.121,257.847C409.081,257.447 409.707,256.608 410,255.329C410.293,254.05 410.439,252.078 410.439,249.414L410.439,238.783C410.439,235.639 410.399,233.095 410.32,231.15C410.24,229.205 410.12,227.886 409.96,227.193C409.64,225.754 409.081,224.835 408.281,224.435C407.482,224.036 405.91,223.836 403.565,223.836L403.565,221.278L416.354,218.241L417.314,226.154L417.633,226.154C419.658,223.649 422.043,221.704 424.787,220.319C427.531,218.933 430.476,218.241 433.62,218.241C436.071,218.241 438.309,218.64 440.334,219.44C442.359,220.239 443.904,221.331 444.97,222.717C445.876,223.942 446.515,225.528 446.888,227.473C447.261,229.418 447.448,232.095 447.448,235.506L447.448,248.854C447.448,251.732 447.581,253.837 447.847,255.169C448.114,256.501 448.713,257.38 449.646,257.807C450.578,258.233 452.004,258.526 453.922,258.686L453.922,261.404L433.22,261.404L433.22,258.686C435.245,258.579 436.724,258.313 437.656,257.887C438.589,257.46 439.188,256.594 439.454,255.289C439.721,253.983 439.854,252.025 439.854,249.414L439.854,238.863C439.854,232.841 439.161,228.618 437.776,226.194C436.39,223.769 434.046,222.557 430.742,222.557C428.397,222.557 426.213,223.183 424.188,224.435C422.163,225.688 420.591,227.406 419.472,229.591C419.099,230.284 418.806,230.963 418.592,231.629C418.379,232.295 418.233,233.121 418.153,234.107C418.073,235.093 418.033,236.438 418.033,238.144Z" style="fill:rgb(43,43,43);fill-rule:nonzero;"/>
            <path d="M495.246,251.732L497.724,253.97C493.195,259.459 487.573,262.203 480.859,262.203C476.702,262.203 473.052,261.297 469.908,259.485C466.764,257.673 464.313,255.156 462.555,251.932C460.796,248.708 459.917,244.964 459.917,240.701C459.917,236.332 460.849,232.455 462.714,229.071C464.58,225.688 467.151,223.037 470.428,221.118C473.705,219.2 477.502,218.241 481.818,218.241C486.934,218.241 490.917,219.639 493.768,222.437C496.619,225.235 498.044,229.245 498.044,234.467C498.044,235.159 497.898,235.599 497.604,235.786C497.311,235.972 496.632,236.065 495.566,236.065L469.269,236.065C469.162,236.492 469.082,237.011 469.029,237.624C468.976,238.237 468.949,238.916 468.949,239.662C468.949,243.339 469.535,246.563 470.708,249.334C471.88,252.105 473.532,254.25 475.663,255.768C477.795,257.287 480.273,258.046 483.097,258.046C485.282,258.046 487.36,257.54 489.332,256.528C491.303,255.515 493.275,253.917 495.246,251.732ZM469.828,232.388L484.536,232.388C486.72,232.388 488.066,232.255 488.572,231.989C489.078,231.722 489.332,231.11 489.332,230.15C489.332,227.699 488.532,225.741 486.934,224.275C485.335,222.81 483.204,222.077 480.539,222.077C477.715,222.077 475.397,222.943 473.585,224.675C471.773,226.407 470.521,228.978 469.828,232.388Z" style="fill:rgb(43,43,43);fill-rule:nonzero;"/>
        </g>
        <g transform="matrix(1.573669,0,0,13.909012,656.838144,-2841.041766)">
            <path d="M75.225,261.974C73.153,261.974 71.402,261.511 69.973,260.585C68.543,259.659 67.456,258.38 66.712,256.747C65.968,255.115 65.583,253.241 65.558,251.127C65.583,248.97 65.975,247.077 66.734,245.449C67.494,243.821 68.59,242.552 70.024,241.643C71.457,240.733 73.2,240.279 75.251,240.279C77.327,240.279 79.136,240.785 80.678,241.798C82.219,242.811 83.274,244.199 83.84,245.963L81.1,246.851C80.618,245.616 79.855,244.658 78.813,243.977C77.77,243.296 76.575,242.956 75.225,242.956C73.711,242.956 72.462,243.304 71.476,243.999C70.491,244.695 69.757,245.657 69.275,246.886C68.793,248.114 68.543,249.528 68.526,251.127C68.552,253.584 69.124,255.56 70.242,257.055C71.361,258.55 73.022,259.297 75.225,259.297C76.621,259.297 77.809,258.976 78.791,258.333C79.772,257.69 80.52,256.756 81.036,255.529L83.84,256.354C83.079,258.181 81.963,259.575 80.491,260.535C79.019,261.495 77.264,261.974 75.225,261.974Z" style="fill:rgb(176,138,120);fill-rule:nonzero;"/>
            <path d="M87.919,261.404L87.919,240.85L90.431,240.85L90.431,245.798L89.937,245.151C90.169,244.542 90.469,243.979 90.837,243.464C91.205,242.948 91.603,242.525 92.03,242.195C92.567,241.729 93.189,241.373 93.895,241.126C94.601,240.878 95.316,240.732 96.039,240.688C96.763,240.644 97.427,240.698 98.031,240.85L98.031,243.476C97.274,243.29 96.453,243.247 95.567,243.346C94.681,243.445 93.861,243.798 93.109,244.402C92.423,244.944 91.912,245.583 91.573,246.321C91.235,247.059 91.009,247.844 90.894,248.675C90.78,249.506 90.723,250.332 90.723,251.152L90.723,261.404L87.919,261.404Z" style="fill:rgb(176,138,120);fill-rule:nonzero;"/>
            <path d="M110.103,261.974C108.107,261.974 106.374,261.531 104.905,260.646C103.435,259.759 102.295,258.51 101.485,256.896C100.675,255.283 100.271,253.389 100.271,251.216C100.271,248.97 100.67,247.029 101.47,245.392C102.269,243.755 103.396,242.494 104.851,241.608C106.305,240.722 108.023,240.279 110.002,240.279C112.032,240.279 113.764,240.744 115.197,241.675C116.631,242.605 117.716,243.939 118.452,245.677C119.188,247.416 119.52,249.494 119.448,251.913L116.599,251.913L116.599,250.924C116.549,248.255 115.975,246.241 114.877,244.881C113.78,243.522 112.18,242.842 110.078,242.842C107.866,242.842 106.173,243.56 105,244.996C103.826,246.431 103.239,248.475 103.239,251.127C103.239,253.719 103.826,255.729 105,257.156C106.173,258.584 107.841,259.297 110.002,259.297C111.474,259.297 112.757,258.957 113.852,258.276C114.948,257.595 115.813,256.616 116.447,255.339L119.061,256.341C118.245,258.134 117.047,259.521 115.467,260.503C113.887,261.484 112.1,261.974 110.103,261.974ZM102.25,251.913L102.25,249.566L117.957,249.566L117.957,251.913L102.25,251.913Z" style="fill:rgb(176,138,120);fill-rule:nonzero;"/>
            <path d="M129.319,261.974C127.762,261.974 126.463,261.694 125.42,261.134C124.378,260.574 123.595,259.831 123.073,258.907C122.551,257.983 122.29,256.976 122.29,255.884C122.29,254.764 122.514,253.808 122.962,253.017C123.411,252.226 124.027,251.578 124.811,251.073C125.596,250.567 126.498,250.179 127.517,249.909C128.566,249.655 129.72,249.431 130.98,249.236C132.241,249.042 133.478,248.869 134.692,248.719C135.905,248.569 136.969,248.428 137.883,248.297L136.88,248.894C136.923,246.872 136.531,245.371 135.707,244.39C134.882,243.408 133.446,242.918 131.399,242.918C129.995,242.918 128.807,243.235 127.834,243.869C126.862,244.504 126.181,245.506 125.791,246.876L123.064,246.077C123.542,244.242 124.491,242.816 125.912,241.801C127.333,240.786 129.179,240.279 131.45,240.279C133.324,240.279 134.918,240.63 136.233,241.332C137.548,242.034 138.479,243.053 139.024,244.39C139.278,244.982 139.443,245.646 139.519,246.382C139.595,247.117 139.633,247.87 139.633,248.64L139.633,261.404L137.134,261.404L137.134,256.24L137.857,256.557C137.159,258.32 136.076,259.664 134.606,260.588C133.136,261.512 131.374,261.974 129.319,261.974ZM129.636,259.551C130.943,259.551 132.083,259.318 133.058,258.85C134.033,258.383 134.82,257.741 135.418,256.925C136.017,256.109 136.403,255.182 136.576,254.146C136.732,253.487 136.818,252.762 136.833,251.974C136.847,251.185 136.855,250.589 136.855,250.188L137.921,250.746C136.961,250.873 135.927,251.001 134.819,251.13C133.711,251.259 132.619,251.404 131.545,251.564C130.471,251.725 129.505,251.922 128.646,252.154C128.063,252.323 127.499,252.557 126.955,252.855C126.412,253.153 125.966,253.548 125.617,254.038C125.268,254.529 125.094,255.144 125.094,255.884C125.094,256.481 125.243,257.059 125.541,257.62C125.839,258.18 126.32,258.642 126.984,259.006C127.648,259.369 128.532,259.551 129.636,259.551Z" style="fill:rgb(176,138,120);fill-rule:nonzero;"/>
            <path d="M155.918,261.404C154.759,261.645 153.618,261.741 152.496,261.692C151.373,261.643 150.37,261.402 149.489,260.969C148.607,260.536 147.942,259.864 147.493,258.955C147.121,258.193 146.918,257.421 146.884,256.636C146.851,255.852 146.834,254.958 146.834,253.956L146.834,235.14L149.625,235.14L149.625,253.854C149.625,254.713 149.634,255.431 149.653,256.008C149.672,256.585 149.802,257.098 150.044,257.546C150.5,258.396 151.226,258.902 152.219,259.063C153.213,259.223 154.446,259.187 155.918,258.955L155.918,261.404ZM142.444,243.248L142.444,240.85L155.918,240.85L155.918,243.248L142.444,243.248Z" style="fill:rgb(176,138,120);fill-rule:nonzero;"/>
            <path d="M160.504,236.955L160.504,233.808L163.296,233.808L163.296,236.955L160.504,236.955ZM160.504,261.404L160.504,240.85L163.296,240.85L163.296,261.404L160.504,261.404Z" style="fill:rgb(176,138,120);fill-rule:nonzero;"/>
            <path d="M174.721,261.404L167.261,240.85L170.102,240.85L176.167,257.75L182.206,240.85L185.074,240.85L177.614,261.404L174.721,261.404Z" style="fill:rgb(176,138,120);fill-rule:nonzero;"/>
            <path d="M196.581,261.974C194.585,261.974 192.852,261.531 191.383,260.646C189.913,259.759 188.773,258.51 187.963,256.896C187.153,255.283 186.749,253.389 186.749,251.216C186.749,248.97 187.148,247.029 187.948,245.392C188.747,243.755 189.874,242.494 191.329,241.608C192.783,240.722 194.501,240.279 196.48,240.279C198.51,240.279 200.242,240.744 201.675,241.675C203.109,242.605 204.194,243.939 204.93,245.677C205.666,247.416 205.998,249.494 205.926,251.913L203.077,251.913L203.077,250.924C203.027,248.255 202.453,246.241 201.355,244.881C200.258,243.522 198.658,242.842 196.556,242.842C194.344,242.842 192.651,243.56 191.478,244.996C190.304,246.431 189.717,248.475 189.717,251.127C189.717,253.719 190.304,255.729 191.478,257.156C192.651,258.584 194.319,259.297 196.48,259.297C197.952,259.297 199.235,258.957 200.33,258.276C201.426,257.595 202.291,256.616 202.925,255.339L205.539,256.341C204.723,258.134 203.525,259.521 201.945,260.503C200.365,261.484 198.578,261.974 196.581,261.974ZM188.728,251.913L188.728,249.566L204.435,249.566L204.435,251.913L188.728,251.913Z" style="fill:rgb(176,138,120);fill-rule:nonzero;"/>
            <path d="M227.571,261.974C225.659,261.974 223.939,261.654 222.41,261.013C220.881,260.373 219.619,259.461 218.623,258.279C217.627,257.097 216.972,255.694 216.659,254.07L219.527,253.601C219.983,255.377 220.948,256.77 222.419,257.781C223.891,258.792 225.646,259.297 227.685,259.297C229.034,259.297 230.239,259.084 231.301,258.657C232.362,258.23 233.199,257.623 233.81,256.836C234.421,256.049 234.726,255.119 234.726,254.045C234.726,253.334 234.598,252.728 234.342,252.227C234.087,251.726 233.752,251.308 233.337,250.974C232.923,250.64 232.467,250.363 231.97,250.144C231.473,249.924 230.988,249.744 230.514,249.604L223.574,247.536C222.737,247.291 221.962,246.982 221.249,246.61C220.536,246.238 219.918,245.787 219.393,245.259C218.869,244.73 218.46,244.112 218.166,243.403C217.872,242.695 217.725,241.882 217.725,240.964C217.725,239.42 218.131,238.084 218.943,236.955C219.755,235.825 220.867,234.956 222.28,234.347C223.692,233.738 225.299,233.436 227.101,233.44C228.924,233.449 230.556,233.776 231.998,234.423C233.441,235.071 234.631,235.991 235.57,237.186C236.509,238.381 237.128,239.801 237.429,241.446L234.498,241.966C234.312,240.782 233.874,239.752 233.185,238.877C232.496,238.001 231.623,237.325 230.568,236.847C229.513,236.369 228.349,236.126 227.076,236.117C225.849,236.109 224.755,236.311 223.793,236.723C222.831,237.136 222.072,237.699 221.515,238.414C220.959,239.128 220.681,239.94 220.681,240.85C220.681,241.776 220.939,242.519 221.455,243.08C221.971,243.64 222.605,244.079 223.358,244.396C224.111,244.713 224.843,244.973 225.553,245.176L230.92,246.749C231.478,246.906 232.134,247.127 232.887,247.412C233.64,247.698 234.374,248.102 235.091,248.624C235.808,249.146 236.402,249.835 236.874,250.689C237.345,251.543 237.581,252.619 237.581,253.918C237.581,255.195 237.33,256.334 236.829,257.334C236.328,258.334 235.625,259.178 234.72,259.865C233.815,260.552 232.754,261.076 231.539,261.435C230.323,261.795 229,261.974 227.571,261.974Z" style="fill:rgb(176,138,120);fill-rule:nonzero;"/>
            <path d="M252.863,261.404C251.704,261.645 250.564,261.741 249.441,261.692C248.318,261.643 247.316,261.402 246.434,260.969C245.552,260.536 244.887,259.864 244.439,258.955C244.066,258.193 243.863,257.421 243.83,256.636C243.796,255.852 243.779,254.958 243.779,253.956L243.779,235.14L246.57,235.14L246.57,253.854C246.57,254.713 246.58,255.431 246.599,256.008C246.618,256.585 246.748,257.098 246.989,257.546C247.445,258.396 248.171,258.902 249.165,259.063C250.159,259.223 251.391,259.187 252.863,258.955L252.863,261.404ZM239.389,243.248L239.389,240.85L252.863,240.85L252.863,243.248L239.389,243.248Z" style="fill:rgb(176,138,120);fill-rule:nonzero;"/>
            <path d="M264.923,261.911C263.692,261.911 262.618,261.723 261.7,261.346C260.782,260.97 260.003,260.458 259.362,259.811C258.722,259.164 258.205,258.423 257.811,257.588C257.418,256.753 257.132,255.87 256.955,254.939C256.777,254.009 256.688,253.081 256.688,252.154L256.688,240.85L259.505,240.85L259.505,251.342C259.505,252.471 259.613,253.517 259.829,254.479C260.044,255.441 260.391,256.28 260.869,256.995C261.347,257.709 261.963,258.263 262.718,258.657C263.473,259.05 264.39,259.247 265.468,259.247C266.454,259.247 267.325,259.078 268.082,258.739C268.839,258.401 269.473,257.911 269.985,257.27C270.497,256.63 270.885,255.849 271.149,254.93C271.413,254.01 271.546,252.97 271.546,251.812L273.525,252.256C273.525,254.362 273.157,256.132 272.421,257.565C271.685,258.999 270.671,260.082 269.379,260.814C268.087,261.545 266.602,261.911 264.923,261.911ZM271.837,261.404L271.837,256.341L271.546,256.341L271.546,240.85L274.349,240.85L274.349,261.404L271.837,261.404Z" style="fill:rgb(176,138,120);fill-rule:nonzero;"/>
            <path d="M287.811,261.974C285.887,261.974 284.246,261.497 282.888,260.541C281.531,259.585 280.491,258.287 279.77,256.646C279.049,255.005 278.689,253.157 278.689,251.101C278.689,249.059 279.047,247.22 279.764,245.586C280.481,243.951 281.512,242.658 282.856,241.706C284.201,240.755 285.815,240.279 287.697,240.279C289.625,240.279 291.249,240.748 292.569,241.687C293.888,242.626 294.886,243.912 295.563,245.544C296.24,247.177 296.578,249.029 296.578,251.101C296.578,253.148 296.241,254.992 295.566,256.633C294.892,258.274 293.903,259.575 292.6,260.535C291.298,261.495 289.701,261.974 287.811,261.974ZM288.09,259.373C289.549,259.373 290.755,259.016 291.709,258.301C292.663,257.587 293.372,256.606 293.837,255.358C294.303,254.11 294.535,252.691 294.535,251.101C294.535,249.494 294.301,248.071 293.831,246.832C293.362,245.593 292.654,244.624 291.709,243.927C290.764,243.229 289.579,242.88 288.153,242.88C286.677,242.88 285.458,243.243 284.496,243.968C283.534,244.693 282.82,245.676 282.355,246.918C281.89,248.159 281.657,249.553 281.657,251.101C281.657,252.662 281.896,254.067 282.374,255.317C282.852,256.566 283.567,257.555 284.518,258.282C285.47,259.01 286.66,259.373 288.09,259.373ZM294.535,261.404L294.535,245.925L294.243,245.925L294.243,233.999L297.047,233.999L297.047,261.404L294.535,261.404Z" style="fill:rgb(176,138,120);fill-rule:nonzero;"/>
            <path d="M302.915,236.955L302.915,233.808L305.707,233.808L305.707,236.955L302.915,236.955ZM302.915,261.404L302.915,240.85L305.707,240.85L305.707,261.404L302.915,261.404Z" style="fill:rgb(176,138,120);fill-rule:nonzero;"/>
            <path d="M320.164,261.974C318.121,261.974 316.375,261.511 314.924,260.585C313.474,259.659 312.362,258.379 311.59,256.744C310.819,255.109 310.433,253.228 310.433,251.101C310.433,248.949 310.826,247.059 311.613,245.433C312.399,243.807 313.52,242.542 314.975,241.637C316.43,240.731 318.159,240.279 320.164,240.279C322.215,240.279 323.967,240.74 325.42,241.662C326.873,242.584 327.984,243.858 328.753,245.484C329.523,247.11 329.908,248.983 329.908,251.101C329.908,253.258 329.52,255.152 328.744,256.782C327.968,258.413 326.851,259.686 325.394,260.601C323.937,261.517 322.194,261.974 320.164,261.974ZM320.164,259.297C322.443,259.297 324.143,258.537 325.261,257.017C326.38,255.496 326.939,253.525 326.939,251.101C326.939,248.623 326.376,246.646 325.249,245.17C324.121,243.694 322.427,242.956 320.164,242.956C318.629,242.956 317.362,243.303 316.364,243.996C315.366,244.69 314.623,245.648 314.134,246.87C313.646,248.092 313.402,249.503 313.402,251.101C313.402,253.575 313.973,255.56 315.117,257.055C316.261,258.55 317.944,259.297 320.164,259.297Z" style="fill:rgb(176,138,120);fill-rule:nonzero;"/>
        </g>
        <g transform="matrix(1.488474,0,0,11.557965,64.103861,210.74636)">
            <path d="M446.027,67.2L446.027,0" style="fill:none;stroke:rgb(109,109,109);stroke-width:1.43px;"/>
        </g>
    </g>
</svg>
