<svg width="60" height="60" viewBox="0 0 60 60" fill="none" xmlns="http://www.w3.org/2000/svg">
<circle cx="30" cy="30" r="30" fill="#B08A78"/>
<path d="M23.7875 15.1052C22.1915 15.1808 21.1016 15.4363 20.1488 15.8118C19.1627 16.1973 18.3269 16.7146 17.4953 17.5518C16.6637 18.389 16.1516 19.228 15.77 20.2186C15.4007 21.1765 15.1505 22.2707 15.08 23.8725C15.0095 25.4744 14.9939 25.9893 15.0017 30.0753C15.0095 34.1613 15.0275 34.6735 15.1049 36.2787C15.1811 37.8793 15.4349 38.9723 15.8093 39.9284C16.1942 40.9175 16.7093 41.7556 17.5442 42.5901C18.3791 43.4246 19.2149 43.9371 20.2049 44.3204C21.1589 44.6903 22.25 44.9425 23.8466 45.0126C25.4432 45.0827 25.9571 45.0989 30.0293 45.0911C34.1015 45.0833 34.6142 45.0652 36.2141 44.9891C37.814 44.913 38.8979 44.6566 39.8513 44.2828C40.8374 43.8958 41.6735 43.38 42.5048 42.5422C43.3361 41.7045 43.8479 40.8649 44.2292 39.8736C44.5988 38.9166 44.8499 37.8222 44.9192 36.2218C44.9891 34.6157 45.0056 34.103 44.9978 30.0175C44.99 25.9321 44.9717 25.4199 44.8958 23.8154C44.8199 22.2108 44.5658 21.1211 44.1917 20.1645C43.8062 19.1753 43.2917 18.3378 42.4571 17.5027C41.6225 16.6677 40.7849 16.1546 39.797 15.773C38.8424 15.4026 37.7519 15.1501 36.1553 15.0809C34.5587 15.0116 34.0448 14.9939 29.9711 15.0017C25.8974 15.0095 25.3874 15.027 23.7875 15.1052ZM23.9627 42.3057C22.5002 42.2419 21.7061 41.9982 21.1769 41.7941C20.4761 41.5233 19.9769 41.1959 19.4495 40.672C18.9221 40.148 18.5981 39.6455 18.3245 38.944C18.119 38.4132 17.8715 37.6175 17.8031 36.1505C17.7287 34.5649 17.7131 34.0888 17.7044 30.0717C17.6957 26.0546 17.711 25.5791 17.7803 23.9929C17.8427 22.5271 18.0872 21.7296 18.2903 21.1991C18.5603 20.4952 18.8855 19.9953 19.409 19.4666C19.9325 18.9379 20.432 18.6123 21.1319 18.3378C21.6605 18.1308 22.4537 17.8846 23.9156 17.8148C25.4975 17.7396 25.9715 17.7245 29.9756 17.7158C33.9797 17.7071 34.4549 17.7221 36.0374 17.7919C37.4987 17.8557 38.294 18.0986 38.8223 18.3035C39.5234 18.5744 40.0223 18.8997 40.5494 19.4257C41.0765 19.9517 41.4014 20.451 41.675 21.1545C41.8817 21.6833 42.1271 22.4786 42.1961 23.946C42.2714 25.5328 42.2885 26.0085 42.2957 30.0248C42.3029 34.041 42.2888 34.5179 42.2195 36.1035C42.1556 37.5706 41.9132 38.3674 41.7095 38.8989C41.4395 39.6016 41.114 40.1026 40.5902 40.631C40.0664 41.1595 39.5675 41.4851 38.8673 41.7595C38.3393 41.9663 37.5452 42.213 36.0845 42.2828C34.5026 42.3575 34.0286 42.3731 30.023 42.3818C26.0174 42.3906 25.5449 42.3743 23.963 42.3057M36.191 22.0047C36.1916 22.3618 36.2978 22.7107 36.4961 23.0073C36.6944 23.3039 36.9759 23.5349 37.3051 23.671C37.6343 23.8071 37.9963 23.8422 38.3453 23.7719C38.6944 23.7016 39.0148 23.529 39.2661 23.276C39.5174 23.023 39.6883 22.701 39.7571 22.3506C39.8259 22.0002 39.7895 21.6372 39.6527 21.3075C39.5158 20.9778 39.2845 20.6962 38.9881 20.4984C38.6917 20.3006 38.3434 20.1954 37.9874 20.1961C37.5101 20.197 37.0527 20.3881 36.7159 20.7273C36.379 21.0664 36.1902 21.5259 36.191 22.0047ZM22.298 30.0615C22.3064 34.3287 25.7612 37.78 30.0143 37.7719C34.2674 37.7638 37.7105 34.2986 37.7024 30.0314C37.6943 25.7642 34.2386 22.3119 29.9849 22.3203C25.7312 22.3288 22.2899 25.7949 22.298 30.0615ZM24.9998 30.056C24.9978 29.0641 25.2892 28.0938 25.837 27.2679C26.3848 26.442 27.1644 25.7976 28.0773 25.4161C28.9902 25.0347 29.9953 24.9334 30.9657 25.125C31.936 25.3166 32.8278 25.7925 33.5285 26.4925C34.2291 27.1926 34.7071 28.0853 34.902 29.0579C35.0968 30.0304 34.9998 31.0391 34.6232 31.9563C34.2465 32.8736 33.6072 33.6582 32.786 34.2109C31.9649 34.7637 30.9987 35.0598 30.0098 35.0617C29.3532 35.0631 28.7027 34.9347 28.0955 34.6839C27.4883 34.4331 26.9364 34.0647 26.4711 33.5999C26.0059 33.1351 25.6365 32.5828 25.384 31.9748C25.1316 31.3667 25.001 30.7147 24.9998 30.056Z" fill="white"/>
</svg>
