<?xml version="1.0" encoding="UTF-8" standalone="no"?>
<!DOCTYPE svg PUBLIC "-//W3C//DTD SVG 1.1//EN" "http://www.w3.org/Graphics/SVG/1.1/DTD/svg11.dtd">
<svg width="100%" height="100%" viewBox="0 0 1300 236" version="1.1" xmlns="http://www.w3.org/2000/svg" xmlns:xlink="http://www.w3.org/1999/xlink" xml:space="preserve" xmlns:serif="http://www.serif.com/" style="fill-rule:evenodd;clip-rule:evenodd;stroke-linejoin:round;stroke-miterlimit:1.5;">
    <rect id="横長ロゴ-white_ol" x="0" y="0" width="1300" height="236" style="fill:none;"/>
    <g>
        <path d="M66.37,170.74L66.37,165.57C71.08,165.39 74.59,164.91 76.9,164.14C79.21,163.37 80.75,161.9 81.52,159.72C82.29,157.55 82.67,154.33 82.67,150.07L82.67,86.69C82.67,82.43 82.35,79.23 81.72,77.1C81.09,74.97 79.8,73.5 77.85,72.68C75.9,71.87 72.98,71.37 69.09,71.19L69.09,66.02L109.7,66.02C121.93,66.02 131.43,68.22 138.23,72.61C145.02,77.01 148.41,83.2 148.41,91.18C148.41,96.98 146.49,101.81 142.64,105.66C138.79,109.52 132.88,112.62 124.91,114.98L124.91,115.52C130.8,115.98 136.3,117.27 141.42,119.4C146.53,121.53 150.68,124.52 153.85,128.37C157.02,132.23 158.6,137.01 158.6,142.72C158.6,147.8 157.29,152.45 154.66,156.66C152.03,160.88 148.59,164.12 144.34,166.39C141.26,168.02 137.52,169.15 133.13,169.79C128.74,170.42 122.79,170.74 115.27,170.74L66.37,170.74ZM115.54,164.89C132.02,164.89 140.26,157.95 140.26,144.08C140.26,138.82 139.15,134.31 136.94,130.55C134.72,126.79 131.66,124 127.77,122.19C124.96,120.83 121.59,119.96 117.65,119.6C113.71,119.24 108.84,119.06 103.05,119.06L96.93,119.06L96.93,149.39C96.93,154.92 98.38,158.88 101.28,161.29C104.18,163.69 108.93,164.89 115.54,164.89ZM96.93,112.26L104.54,112.26C110.43,112.26 114.73,111.96 117.44,111.37C120.16,110.78 122.24,110.04 123.69,109.13C126.05,107.68 127.9,105.5 129.26,102.6C130.62,99.7 131.3,96.07 131.3,91.72C131.3,85.19 129.56,80.34 126.07,77.17C122.58,74 117.13,72.41 109.7,72.41L99.24,72.41C97.7,72.41 96.93,73.18 96.93,74.72L96.93,112.26Z" style="fill:white;fill-rule:nonzero;"/>
        <path d="M192,66L192,151.05C192,155.26 192.26,158.43 192.76,160.58C193.26,162.72 194.34,164.18 195.97,164.93C197.61,165.69 200.03,166.15 203.22,166.32L203.22,170.74L168.44,170.74L168.44,166.32C171.8,166.15 174.32,165.69 176,164.93C177.68,164.18 178.81,162.79 179.4,160.77C179.99,158.75 180.28,155.81 180.28,151.94L180.28,97.55C180.28,93 180.22,89.2 180.09,86.13C179.97,83.06 179.78,80.97 179.53,79.88C179.11,77.95 178.12,76.64 176.56,75.97C175.01,75.3 172.22,74.96 168.18,74.96L168.18,70.67L192,66Z" style="fill:white;fill-rule:nonzero;"/>
        <path d="M247.84,102.6C252.62,102.6 257.16,103.44 261.45,105.12C265.73,106.8 269.49,109.18 272.73,112.25C275.96,115.32 278.52,118.94 280.41,123.1C282.31,127.27 283.25,131.83 283.25,136.79C283.25,141.92 282.31,146.64 280.41,150.93C278.52,155.22 275.96,158.94 272.73,162.09C269.49,165.25 265.73,167.69 261.45,169.41C257.16,171.14 252.62,172 247.84,172C243.13,172 238.68,171.14 234.48,169.41C230.28,167.69 226.56,165.25 223.32,162.09C220.09,158.94 217.55,155.22 215.7,150.93C213.85,146.64 212.92,141.92 212.92,136.79C212.92,130.15 214.52,124.26 217.71,119.13C220.91,113.99 225.15,109.96 230.44,107.01C235.74,104.07 241.53,102.6 247.84,102.6ZM247.84,108.65C243.72,108.65 240.11,109.83 237,112.19C233.89,114.54 231.47,117.84 229.75,122.09C228.03,126.34 227.17,131.28 227.17,136.92C227.17,145.58 229.04,152.52 232.77,157.74C236.51,162.96 241.53,165.56 247.84,165.56C254.31,165.56 259.45,162.96 263.27,157.74C267.1,152.52 269.01,145.58 269.01,136.92C269.01,131.28 268.13,126.36 266.36,122.15C264.6,117.95 262.14,114.65 258.99,112.25C255.84,109.85 252.12,108.65 247.84,108.65Z" style="fill:white;fill-rule:nonzero;"/>
        <path d="M330.51,102.6C335.3,102.6 339.84,103.44 344.12,105.12C348.41,106.8 352.17,109.18 355.4,112.25C358.64,115.32 361.2,118.94 363.09,123.1C364.98,127.27 365.93,131.83 365.93,136.79C365.93,141.92 364.98,146.64 363.09,150.93C361.2,155.22 358.64,158.94 355.4,162.09C352.17,165.25 348.41,167.69 344.12,169.41C339.84,171.14 335.3,172 330.51,172C325.81,172 321.35,171.14 317.15,169.41C312.95,167.69 309.23,165.25 306,162.09C302.76,158.94 300.22,155.22 298.37,150.93C296.53,146.64 295.6,141.92 295.6,136.79C295.6,130.15 297.2,124.26 300.39,119.13C303.58,113.99 307.83,109.96 313.12,107.01C318.41,104.07 324.21,102.6 330.51,102.6ZM330.51,108.65C326.4,108.65 322.78,109.83 319.67,112.19C316.56,114.54 314.15,117.84 312.43,122.09C310.7,126.34 309.84,131.28 309.84,136.92C309.84,145.58 311.71,152.52 315.45,157.74C319.19,162.96 324.21,165.56 330.51,165.56C336.98,165.56 342.13,162.96 345.95,157.74C349.77,152.52 351.69,145.58 351.69,136.92C351.69,131.28 350.8,126.36 349.04,122.15C347.27,117.95 344.82,114.65 341.67,112.25C338.52,109.85 334.8,108.65 330.51,108.65Z" style="fill:white;fill-rule:nonzero;"/>
        <path d="M400.08,134.52L400.08,150.55C400.08,155.17 400.27,158.58 400.65,160.77C401.03,162.96 401.95,164.37 403.42,165C404.89,165.63 407.22,166.07 410.42,166.32L410.42,170.74L376.89,170.74L376.89,166.32C380.17,166.07 382.56,165.63 384.08,165C385.59,164.37 386.58,163.02 387.04,160.96C387.5,158.9 387.73,155.76 387.73,151.56L387.73,135.4C387.73,130.61 387.67,126.59 387.54,123.35C387.42,120.11 387.18,117.95 386.85,116.85C386.43,114.67 385.59,113.28 384.33,112.69C383.07,112.1 380.5,111.81 376.64,111.81L376.64,107.39L397.18,102.6L398.82,115.21L399.45,115.21C403.23,110.92 407.2,107.75 411.36,105.69C415.52,103.63 420.12,102.6 425.16,102.6C430.46,102.6 434.93,103.69 438.58,105.88C442.24,108.06 444.74,111.13 446.08,115.09L446.59,115.09C449.7,111.13 453.5,108.06 457.99,105.88C462.49,103.69 467.21,102.6 472.17,102.6C476.12,102.6 479.71,103.25 482.95,104.55C486.18,105.86 488.64,107.64 490.32,109.91C491.83,111.85 492.9,114.39 493.53,117.55C494.16,120.7 494.48,125.02 494.48,130.48L494.48,150.55C494.48,155.17 494.69,158.56 495.11,160.71C495.53,162.85 496.47,164.26 497.95,164.93C499.42,165.61 501.75,166.07 504.94,166.32L504.94,170.74L471.42,170.74L471.42,166.32C474.61,166.15 476.96,165.73 478.47,165.06C479.99,164.39 480.97,163.02 481.43,160.96C481.9,158.9 482.13,155.76 482.13,151.56L482.13,135.66C482.13,125.98 481.04,119.21 478.85,115.34C476.67,111.47 472.84,109.54 467.38,109.54C463.77,109.54 460.32,110.57 457.05,112.63C453.77,114.69 451.21,117.44 449.36,120.89C448.77,121.99 448.33,123.08 448.04,124.17C447.74,125.27 447.53,126.59 447.41,128.15C447.28,129.71 447.22,131.83 447.22,134.52L447.22,150.55C447.22,155.17 447.43,158.56 447.85,160.71C448.27,162.85 449.21,164.26 450.68,164.93C452.15,165.61 454.53,166.07 457.8,166.32L457.8,170.74L424.28,170.74L424.28,166.32C427.47,166.07 429.83,165.63 431.34,165C432.85,164.37 433.82,163.02 434.24,160.96C434.66,158.9 434.87,155.76 434.87,151.56L434.87,135.66C434.87,129.1 434.4,123.92 433.48,120.14C432.56,116.35 431.04,113.64 428.94,112C426.84,110.36 423.99,109.54 420.37,109.54C416.68,109.54 413.15,110.57 409.79,112.63C406.43,114.69 403.9,117.44 402.22,120.89C401.64,121.99 401.19,123.08 400.9,124.17C400.61,125.27 400.4,126.59 400.27,128.15C400.14,129.71 400.08,131.83 400.08,134.52Z" style="fill:white;fill-rule:nonzero;"/>
        <path d="M534.05,66L534.05,151.05C534.05,155.26 534.31,158.43 534.81,160.58C535.31,162.72 536.38,164.18 538.02,164.93C539.66,165.69 542.08,166.15 545.27,166.32L545.27,170.74L510.49,170.74L510.49,166.32C513.85,166.15 516.37,165.69 518.05,164.93C519.73,164.18 520.86,162.79 521.45,160.77C522.04,158.75 522.33,155.81 522.33,151.94L522.33,97.55C522.33,93 522.27,89.2 522.14,86.13C522.02,83.06 521.83,80.97 521.58,79.88C521.16,77.95 520.17,76.64 518.61,75.97C517.06,75.3 514.27,74.96 510.23,74.96L510.23,70.67L534.05,66Z" style="fill:white;fill-rule:nonzero;"/>
        <path d="M577.66,102.6L577.66,150.67C577.66,154.96 577.95,158.22 578.54,160.45C579.13,162.68 580.26,164.18 581.95,164.93C583.63,165.69 586.1,166.15 589.38,166.32L589.38,170.74L553.21,170.74L553.21,166.32C556.65,166.15 559.24,165.67 560.96,164.87C562.68,164.07 563.84,162.64 564.43,160.58C565.01,158.52 565.31,155.51 565.31,151.56L565.31,135.4C565.31,130.53 565.25,126.49 565.12,123.29C564.99,120.09 564.76,117.95 564.43,116.85C564.09,114.92 563.15,113.59 561.59,112.88C560.04,112.16 557.16,111.81 552.96,111.81L552.96,107.39L577.66,102.6ZM563.17,76.98C563.17,74.79 563.92,72.94 565.43,71.43C566.95,69.91 568.8,69.15 570.98,69.15C573.16,69.15 575.01,69.91 576.53,71.43C578.04,72.94 578.79,74.79 578.79,76.98C578.79,79.17 578.04,81.02 576.53,82.53C575.01,84.05 573.16,84.8 570.98,84.8C568.8,84.8 566.95,84.05 565.43,82.53C563.92,81.02 563.17,79.17 563.17,76.98Z" style="fill:white;fill-rule:nonzero;"/>
        <path d="M619.38,134.02L619.38,150.93C619.38,155.47 619.57,158.79 619.94,160.9C620.32,163 621.27,164.39 622.78,165.06C624.29,165.73 626.64,166.2 629.84,166.45L629.84,170.74L596.82,170.74L596.82,166.45C599.93,166.2 602.24,165.75 603.75,165.12C605.26,164.49 606.25,163.17 606.71,161.15C607.17,159.13 607.4,156.02 607.4,151.81L607.4,135.03C607.4,130.06 607.34,126.05 607.21,122.97C607.09,119.9 606.9,117.82 606.65,116.73C606.14,114.46 605.26,113.01 604,112.37C602.74,111.74 600.26,111.43 596.56,111.43L596.56,107.39L616.73,102.6L618.24,115.09L618.75,115.09C621.94,111.13 625.7,108.06 630.03,105.88C634.35,103.69 639,102.6 643.95,102.6C647.82,102.6 651.35,103.23 654.54,104.49C657.73,105.75 660.17,107.47 661.85,109.66C663.28,111.6 664.29,114.1 664.87,117.17C665.46,120.24 665.76,124.47 665.76,129.85L665.76,150.93C665.76,155.47 665.97,158.79 666.39,160.9C666.81,163 667.75,164.39 669.22,165.06C670.69,165.73 672.94,166.2 675.96,166.45L675.96,170.74L643.32,170.74L643.32,166.45C646.52,166.28 648.85,165.86 650.32,165.19C651.79,164.51 652.73,163.15 653.15,161.08C653.57,159.02 653.78,155.93 653.78,151.81L653.78,135.15C653.78,125.65 652.69,118.98 650.51,115.15C648.32,111.32 644.62,109.41 639.42,109.41C635.72,109.41 632.27,110.4 629.08,112.37C625.89,114.35 623.41,117.07 621.65,120.51C621.06,121.61 620.59,122.68 620.26,123.73C619.92,124.78 619.69,126.09 619.57,127.64C619.44,129.2 619.38,131.32 619.38,134.02Z" style="fill:white;fill-rule:nonzero;"/>
        <path d="M741.12,155.47L745.03,159C737.89,167.67 729.02,172 718.44,172C711.88,172 706.13,170.57 701.17,167.71C696.21,164.85 692.35,160.87 689.58,155.78C686.8,150.69 685.42,144.78 685.42,138.05C685.42,131.16 686.89,125.04 689.83,119.69C692.77,114.35 696.82,110.17 701.99,107.14C707.16,104.11 713.14,102.6 719.95,102.6C728.02,102.6 734.3,104.8 738.79,109.22C743.29,113.64 745.53,119.97 745.53,128.21C745.53,129.31 745.3,130 744.84,130.29C744.38,130.59 743.31,130.74 741.63,130.74L700.16,130.74C699.99,131.41 699.87,132.23 699.78,133.2C699.7,134.16 699.66,135.24 699.66,136.41C699.66,142.22 700.58,147.31 702.43,151.68C704.28,156.06 706.88,159.44 710.25,161.84C713.61,164.24 717.51,165.44 721.97,165.44C725.41,165.44 728.69,164.64 731.8,163.04C734.91,161.44 738.01,158.92 741.12,155.47ZM701.04,124.93L724.23,124.93C727.68,124.93 729.8,124.72 730.6,124.3C731.4,123.88 731.8,122.91 731.8,121.4C731.8,117.53 730.54,114.44 728.02,112.12C725.5,109.81 722.13,108.65 717.93,108.65C713.48,108.65 709.83,110.02 706.97,112.75C704.11,115.49 702.14,119.55 701.04,124.93Z" style="fill:white;fill-rule:nonzero;"/>
    </g>
    <g>
        <path d="M825.22,140.98C821.96,140.98 819.2,140.25 816.95,138.79C814.7,137.33 812.99,135.31 811.82,132.74C810.65,130.17 810.04,127.21 810,123.88C810.04,120.48 810.66,117.5 811.86,114.93C813.05,112.36 814.78,110.36 817.03,108.93C819.29,107.5 822.03,106.78 825.26,106.78C828.53,106.78 831.37,107.58 833.8,109.18C836.22,110.77 837.88,112.96 838.78,115.74L834.46,117.14C833.7,115.19 832.5,113.68 830.86,112.61C829.22,111.54 827.34,111 825.22,111C822.84,111 820.87,111.55 819.32,112.64C817.77,113.74 816.61,115.26 815.85,117.2C815.1,119.13 814.7,121.36 814.68,123.88C814.72,127.75 815.62,130.87 817.38,133.22C819.14,135.58 821.75,136.76 825.22,136.76C827.41,136.76 829.28,136.25 830.83,135.24C832.37,134.23 833.55,132.75 834.36,130.82L838.78,132.12C837.58,135 835.82,137.2 833.5,138.71C831.19,140.22 828.43,140.98 825.22,140.98Z" style="fill:white;fill-rule:nonzero;"/>
        <path d="M845.19,140.08L845.19,107.68L849.15,107.68L849.15,115.48L848.37,114.46C848.73,113.5 849.21,112.61 849.79,111.8C850.37,110.99 850.99,110.32 851.66,109.8C852.51,109.07 853.49,108.5 854.6,108.11C855.71,107.72 856.83,107.49 857.97,107.42C859.11,107.35 860.16,107.44 861.11,107.68L861.11,111.82C859.92,111.53 858.62,111.46 857.23,111.62C855.83,111.77 854.54,112.33 853.36,113.28C852.28,114.13 851.48,115.14 850.94,116.3C850.41,117.47 850.06,118.71 849.88,120.02C849.7,121.33 849.61,122.63 849.61,123.92L849.61,140.08L845.19,140.08Z" style="fill:white;fill-rule:nonzero;"/>
        <path d="M880.1,140.98C876.96,140.98 874.24,140.28 871.92,138.89C869.61,137.49 867.82,135.52 866.54,132.98C865.27,130.43 864.63,127.45 864.63,124.02C864.63,120.48 865.26,117.42 866.52,114.84C867.78,112.26 869.55,110.27 871.84,108.88C874.13,107.48 876.83,106.78 879.94,106.78C883.14,106.78 885.86,107.51 888.12,108.98C890.38,110.45 892.08,112.55 893.24,115.29C894.4,118.03 894.92,121.31 894.81,125.12L890.33,125.12L890.33,123.56C890.25,119.35 889.34,116.18 887.62,114.04C885.89,111.89 883.37,110.82 880.06,110.82C876.58,110.82 873.92,111.95 872.07,114.22C870.23,116.48 869.3,119.7 869.3,123.88C869.3,127.97 870.23,131.13 872.07,133.38C873.92,135.63 876.54,136.76 879.94,136.76C882.26,136.76 884.28,136.22 886,135.15C887.73,134.08 889.09,132.53 890.09,130.52L894.2,132.1C892.92,134.93 891.03,137.11 888.55,138.66C886.06,140.21 883.25,140.98 880.1,140.98ZM867.75,125.12L867.75,121.42L892.46,121.42L892.46,125.12L867.75,125.12Z" style="fill:white;fill-rule:nonzero;"/>
        <path d="M910.34,140.98C907.89,140.98 905.85,140.54 904.21,139.66C902.57,138.77 901.34,137.6 900.51,136.15C899.69,134.69 899.28,133.1 899.28,131.38C899.28,129.61 899.63,128.11 900.34,126.86C901.05,125.61 902.02,124.59 903.25,123.8C904.48,123 905.9,122.39 907.51,121.96C909.16,121.56 910.97,121.21 912.96,120.9C914.94,120.59 916.89,120.32 918.8,120.08C920.71,119.85 922.38,119.63 923.82,119.42L922.24,120.36C922.31,117.17 921.69,114.81 920.4,113.26C919.1,111.71 916.84,110.94 913.62,110.94C911.41,110.94 909.54,111.44 908.01,112.44C906.48,113.44 905.4,115.02 904.79,117.18L900.5,115.92C901.25,113.03 902.75,110.78 904.98,109.18C907.22,107.58 910.12,106.78 913.7,106.78C916.65,106.78 919.15,107.33 921.22,108.44C923.29,109.55 924.76,111.15 925.62,113.26C926.02,114.19 926.28,115.24 926.4,116.4C926.52,117.56 926.58,118.75 926.58,119.96L926.58,140.08L922.64,140.08L922.64,131.94L923.78,132.44C922.68,135.22 920.98,137.34 918.66,138.8C916.35,140.25 913.58,140.98 910.34,140.98ZM910.84,137.16C912.9,137.16 914.69,136.79 916.23,136.06C917.76,135.32 919,134.31 919.94,133.02C920.88,131.73 921.49,130.27 921.76,128.64C922.01,127.6 922.14,126.46 922.17,125.21C922.19,123.97 922.2,123.03 922.2,122.4L923.88,123.28C922.37,123.48 920.74,123.68 919,123.89C917.25,124.09 915.54,124.32 913.85,124.57C912.16,124.82 910.64,125.13 909.28,125.5C908.37,125.77 907.48,126.13 906.62,126.6C905.77,127.07 905.07,127.7 904.52,128.47C903.97,129.24 903.69,130.21 903.69,131.38C903.69,132.32 903.93,133.23 904.4,134.12C904.87,135 905.62,135.73 906.67,136.3C907.71,136.87 909.11,137.16 910.84,137.16Z" style="fill:white;fill-rule:nonzero;"/>
        <path d="M952.2,140.08C950.38,140.46 948.58,140.61 946.82,140.53C945.05,140.46 943.47,140.08 942.08,139.4C940.7,138.71 939.65,137.65 938.94,136.22C938.36,135.02 938.04,133.8 937.99,132.56C937.93,131.33 937.91,129.92 937.91,128.34L937.91,98.68L942.3,98.68L942.3,128.18C942.3,129.53 942.31,130.66 942.34,131.57C942.37,132.48 942.58,133.29 942.96,134C943.68,135.34 944.82,136.14 946.38,136.39C947.95,136.64 949.89,136.59 952.2,136.22L952.2,140.08ZM931,111.46L931,107.68L952.2,107.68L952.2,111.46L931,111.46Z" style="fill:white;fill-rule:nonzero;"/>
        <path d="M959.42,101.54L959.42,96.58L963.81,96.58L963.81,101.54L959.42,101.54ZM959.42,140.08L959.42,107.68L963.81,107.68L963.81,140.08L959.42,140.08Z" style="fill:white;fill-rule:nonzero;"/>
        <path d="M981.79,140.08L970.05,107.68L974.52,107.68L984.07,134.32L993.57,107.68L998.08,107.68L986.34,140.08L981.79,140.08Z" style="fill:white;fill-rule:nonzero;"/>
        <path d="M1016.19,140.98C1013.05,140.98 1010.32,140.28 1008.01,138.89C1005.7,137.49 1003.9,135.52 1002.63,132.98C1001.36,130.43 1000.72,127.45 1000.72,124.02C1000.72,120.48 1001.35,117.42 1002.61,114.84C1003.86,112.26 1005.64,110.27 1007.93,108.88C1010.22,107.48 1012.92,106.78 1016.03,106.78C1019.23,106.78 1021.95,107.51 1024.21,108.98C1026.46,110.45 1028.17,112.55 1029.33,115.29C1030.49,118.03 1031.01,121.31 1030.9,125.12L1026.41,125.12L1026.41,123.56C1026.33,119.35 1025.43,116.18 1023.7,114.04C1021.98,111.89 1019.46,110.82 1016.15,110.82C1012.67,110.82 1010.01,111.95 1008.16,114.22C1006.31,116.48 1005.39,119.7 1005.39,123.88C1005.39,127.97 1006.31,131.13 1008.16,133.38C1010.01,135.63 1012.63,136.76 1016.03,136.76C1018.35,136.76 1020.37,136.22 1022.09,135.15C1023.82,134.08 1025.18,132.53 1026.18,130.52L1030.29,132.1C1029,134.93 1027.12,137.11 1024.63,138.66C1022.15,140.21 1019.33,140.98 1016.19,140.98ZM1003.83,125.12L1003.83,121.42L1028.55,121.42L1028.55,125.12L1003.83,125.12Z" style="fill:white;fill-rule:nonzero;"/>
        <path d="M1064.96,140.98C1061.95,140.98 1059.24,140.47 1056.84,139.46C1054.43,138.45 1052.45,137.02 1050.88,135.16C1049.31,133.29 1048.28,131.08 1047.79,128.52L1052.3,127.78C1053.02,130.58 1054.54,132.78 1056.85,134.37C1059.17,135.96 1061.93,136.76 1065.14,136.76C1067.26,136.76 1069.16,136.42 1070.83,135.75C1072.5,135.08 1073.82,134.12 1074.78,132.88C1075.74,131.64 1076.22,130.17 1076.22,128.48C1076.22,127.36 1076.02,126.4 1075.62,125.61C1075.21,124.82 1074.69,124.17 1074.03,123.64C1073.38,123.11 1072.66,122.68 1071.88,122.33C1071.1,121.98 1070.34,121.7 1069.59,121.48L1058.67,118.22C1057.35,117.83 1056.13,117.35 1055.01,116.76C1053.89,116.17 1052.92,115.46 1052.09,114.63C1051.27,113.8 1050.62,112.82 1050.16,111.71C1049.7,110.59 1049.47,109.31 1049.47,107.86C1049.47,105.43 1050.1,103.32 1051.38,101.54C1052.66,99.76 1054.41,98.39 1056.63,97.43C1058.86,96.47 1061.39,95.99 1064.22,96C1067.09,96.01 1069.66,96.53 1071.93,97.55C1074.2,98.57 1076.07,100.02 1077.55,101.9C1079.02,103.79 1080,106.03 1080.47,108.62L1075.86,109.44C1075.57,107.57 1074.88,105.95 1073.79,104.57C1072.71,103.19 1071.34,102.12 1069.68,101.37C1068.02,100.62 1066.18,100.23 1064.18,100.22C1062.25,100.21 1060.53,100.53 1059.01,101.18C1057.5,101.83 1056.31,102.71 1055.43,103.84C1054.56,104.97 1054.12,106.25 1054.12,107.68C1054.12,109.14 1054.52,110.31 1055.34,111.2C1056.15,112.08 1057.15,112.77 1058.33,113.27C1059.51,113.77 1060.67,114.18 1061.78,114.5L1070.23,116.98C1071.11,117.23 1072.14,117.57 1073.32,118.02C1074.51,118.47 1075.67,119.11 1076.79,119.93C1077.92,120.76 1078.86,121.84 1079.6,123.19C1080.34,124.54 1080.71,126.23 1080.71,128.28C1080.71,130.29 1080.32,132.09 1079.53,133.67C1078.74,135.24 1077.63,136.57 1076.21,137.66C1074.79,138.74 1073.12,139.56 1071.2,140.13C1069.29,140.7 1067.21,140.98 1064.96,140.98Z" style="fill:white;fill-rule:nonzero;"/>
        <path d="M1104.76,140.08C1102.94,140.46 1101.14,140.61 1099.38,140.53C1097.61,140.46 1096.03,140.08 1094.64,139.4C1093.26,138.71 1092.21,137.65 1091.5,136.22C1090.92,135.02 1090.6,133.8 1090.55,132.56C1090.49,131.33 1090.47,129.92 1090.47,128.34L1090.47,98.68L1094.86,98.68L1094.86,128.18C1094.86,129.53 1094.87,130.66 1094.9,131.57C1094.93,132.48 1095.14,133.29 1095.52,134C1096.24,135.34 1097.38,136.14 1098.94,136.39C1100.5,136.64 1102.45,136.59 1104.76,136.22L1104.76,140.08ZM1083.56,111.46L1083.56,107.68L1104.76,107.68L1104.76,111.46L1083.56,111.46Z" style="fill:white;fill-rule:nonzero;"/>
        <path d="M1123.74,140.88C1121.8,140.88 1120.11,140.58 1118.67,139.99C1117.22,139.4 1116,138.59 1114.99,137.57C1113.98,136.55 1113.17,135.38 1112.55,134.06C1111.93,132.75 1111.48,131.36 1111.2,129.89C1110.92,128.42 1110.78,126.96 1110.78,125.5L1110.78,107.68L1115.21,107.68L1115.21,124.22C1115.21,126 1115.38,127.65 1115.72,129.17C1116.06,130.68 1116.61,132 1117.36,133.13C1118.11,134.26 1119.08,135.13 1120.27,135.75C1121.46,136.37 1122.9,136.68 1124.6,136.68C1126.15,136.68 1127.52,136.41 1128.71,135.88C1129.9,135.35 1130.9,134.57 1131.7,133.56C1132.51,132.55 1133.12,131.32 1133.54,129.87C1133.95,128.42 1134.16,126.79 1134.16,124.96L1137.28,125.66C1137.28,128.98 1136.7,131.77 1135.54,134.03C1134.38,136.29 1132.79,138 1130.75,139.15C1128.72,140.3 1126.38,140.88 1123.74,140.88ZM1134.62,140.08L1134.62,132.1L1134.16,132.1L1134.16,107.68L1138.57,107.68L1138.57,140.08L1134.62,140.08Z" style="fill:white;fill-rule:nonzero;"/>
        <path d="M1159.76,140.98C1156.73,140.98 1154.15,140.23 1152.01,138.72C1149.87,137.21 1148.24,135.17 1147.1,132.58C1145.97,129.99 1145.4,127.08 1145.4,123.84C1145.4,120.62 1145.97,117.72 1147.09,115.15C1148.22,112.57 1149.84,110.53 1151.96,109.03C1154.08,107.53 1156.62,106.78 1159.58,106.78C1162.61,106.78 1165.17,107.52 1167.24,109C1169.32,110.48 1170.89,112.51 1171.96,115.08C1173.02,117.65 1173.55,120.57 1173.55,123.84C1173.55,127.07 1173.02,129.97 1171.96,132.56C1170.9,135.15 1169.34,137.2 1167.29,138.71C1165.24,140.22 1162.73,140.98 1159.76,140.98ZM1160.2,136.88C1162.49,136.88 1164.39,136.32 1165.89,135.19C1167.39,134.06 1168.51,132.52 1169.24,130.55C1169.97,128.58 1170.34,126.35 1170.34,123.84C1170.34,121.31 1169.97,119.06 1169.23,117.11C1168.49,115.16 1167.38,113.63 1165.89,112.53C1164.4,111.43 1162.54,110.88 1160.3,110.88C1157.97,110.88 1156.06,111.45 1154.54,112.6C1153.03,113.74 1151.9,115.29 1151.17,117.25C1150.44,119.2 1150.07,121.4 1150.07,123.84C1150.07,126.3 1150.45,128.52 1151.2,130.49C1151.95,132.46 1153.08,134.01 1154.58,135.16C1156.07,136.31 1157.95,136.88 1160.2,136.88ZM1170.34,140.08L1170.34,115.68L1169.88,115.68L1169.88,96.88L1174.29,96.88L1174.29,140.08L1170.34,140.08Z" style="fill:white;fill-rule:nonzero;"/>
        <path d="M1183.53,101.54L1183.53,96.58L1187.92,96.58L1187.92,101.54L1183.53,101.54ZM1183.53,140.08L1183.53,107.68L1187.92,107.68L1187.92,140.08L1183.53,140.08Z" style="fill:white;fill-rule:nonzero;"/>
        <path d="M1210.67,140.98C1207.46,140.98 1204.71,140.25 1202.42,138.79C1200.14,137.33 1198.39,135.31 1197.18,132.74C1195.96,130.16 1195.36,127.19 1195.36,123.84C1195.36,120.45 1195.98,117.47 1197.21,114.91C1198.45,112.34 1200.21,110.35 1202.5,108.92C1204.79,107.49 1207.52,106.78 1210.67,106.78C1213.9,106.78 1216.66,107.51 1218.94,108.96C1221.23,110.41 1222.98,112.42 1224.19,114.98C1225.4,117.55 1226,120.5 1226,123.84C1226,127.24 1225.39,130.23 1224.17,132.8C1222.95,135.37 1221.19,137.37 1218.9,138.82C1216.61,140.26 1213.86,140.98 1210.67,140.98ZM1210.67,136.76C1214.26,136.76 1216.93,135.56 1218.69,133.16C1220.45,130.77 1221.33,127.66 1221.33,123.84C1221.33,119.93 1220.45,116.82 1218.67,114.49C1216.9,112.16 1214.23,111 1210.67,111C1208.25,111 1206.26,111.55 1204.69,112.64C1203.12,113.73 1201.95,115.24 1201.18,117.17C1200.41,119.1 1200.03,121.32 1200.03,123.84C1200.03,127.74 1200.93,130.87 1202.73,133.22C1204.53,135.58 1207.18,136.76 1210.67,136.76Z" style="fill:white;fill-rule:nonzero;"/>
    </g>
    <path d="M778,161.91L778,73.88" style="fill:none;stroke:white;stroke-width:2px;"/>
</svg>
