<svg width="1440" height="500" viewBox="0 0 1440 500" fill="none" xmlns="http://www.w3.org/2000/svg">
<g clip-path="url(#clip0_90_13)">
<rect y="82" width="1440" height="1830" fill="#F4F0ED"/>
<g clip-path="url(#clip1_90_13)">
<g clip-path="url(#clip2_90_13)">
<path d="M0 43C60 43 120 35.8333 180 21.5C300 -7.16667 420 -7.16667 540 21.5C600 35.8333 660 43 720 43C780 43 840 35.8333 900 21.5C1020 -7.16667 1140 -7.16667 1260 21.5C1320 35.8333 1380 43 1440 43C1500 43 1560 35.8333 1620 21.5C1740 -7.16667 1860 -7.16667 1980 21.5C2040 35.8333 2100 43 2160 43L1440 100H0V43Z" fill="#F4F0ED" fill-opacity="0.4"/>
</g>
<path d="M-244.8 35.26C-184.8 35.26 -124.8 29.3833 -64.8 17.63C55.2 -5.87667 175.2 -5.87667 295.2 17.63C355.2 29.3833 415.2 35.26 475.2 35.26C535.2 35.26 595.2 29.3833 655.2 17.63C775.2 -5.87667 895.2 -5.87667 1015.2 17.63C1075.2 29.3833 1135.2 35.26 1195.2 35.26C1255.2 35.26 1315.2 29.3833 1375.2 17.63C1495.2 -5.87667 1615.2 -5.87667 1735.2 17.63C1795.2 29.3833 1855.2 35.26 1915.2 35.26L1440 82H-4.57764e-05L-244.8 35.26Z" fill="#F4F0ED"/>
</g>
</g>
<defs>
<clipPath id="clip0_90_13">
<rect width="1440" height="500" fill="white"/>
</clipPath>
<clipPath id="clip1_90_13">
<rect width="1440" height="82" fill="white"/>
</clipPath>
<clipPath id="clip2_90_13">
<rect width="1440" height="100" fill="white"/>
</clipPath>
</defs>
</svg>
