<svg width="393" height="852" viewBox="0 0 393 852" fill="none" xmlns="http://www.w3.org/2000/svg">
<g clip-path="url(#clip0_138_12)">
<rect y="85" width="393" height="823" fill="#F4F0ED"/>
<g clip-path="url(#clip1_138_12)">
<g clip-path="url(#clip2_138_12)">
<path d="M-240 67.81C-193.194 67.81 -146.389 63.0083 -99.5833 53.405C-5.97222 34.1983 87.6389 34.1983 181.25 53.405C228.056 63.0083 274.861 67.81 321.667 67.81C368.472 67.81 415.278 63.0083 462.083 53.405C555.694 34.1983 649.306 34.1983 742.917 53.405C789.722 63.0083 836.528 67.81 883.333 67.81C930.139 67.81 976.944 63.0083 1023.75 53.405C1117.36 34.1983 1210.97 34.1983 1304.58 53.405C1351.39 63.0083 1398.19 67.81 1445 67.81L883.333 106H-240V67.81Z" fill="#F4F0ED" fill-opacity="0.4"/>
</g>
<path d="M-276 77.4116C-245.417 77.4116 -214.833 70.0692 -184.25 55.3842C-123.083 26.0143 -61.9167 26.0143 -0.749994 55.3842C29.8333 70.0692 60.4167 77.4116 91 77.4116C121.583 77.4116 152.167 70.0692 182.75 55.3842C243.917 26.0143 305.083 26.0143 366.25 55.3842C396.833 70.0692 427.417 77.4116 458 77.4116C488.583 77.4116 519.167 70.0692 549.75 55.3842C610.917 26.0143 672.083 26.0143 733.25 55.3842C763.833 70.0692 794.417 77.4116 825 77.4116L582.78 135.81H-151.22L-276 77.4116Z" fill="#F4F0ED"/>
</g>
</g>
<defs>
<clipPath id="clip0_138_12">
<rect width="393" height="852" fill="white"/>
</clipPath>
<clipPath id="clip1_138_12">
<rect width="734" height="102.453" fill="white" transform="translate(-128)"/>
</clipPath>
<clipPath id="clip2_138_12">
<rect width="1440" height="100" fill="white" transform="translate(-207.22 28)"/>
</clipPath>
</defs>
</svg>
