<svg width="60" height="60" viewBox="0 0 60 60" fill="none" xmlns="http://www.w3.org/2000/svg">
<circle cx="30" cy="30" r="30" fill="#D2BDB3"/>
<path d="M23.7876 15.1052C22.1916 15.1808 21.1017 15.4363 20.1489 15.8118C19.1628 16.1973 18.327 16.7146 17.4954 17.5518C16.6638 18.389 16.1517 19.228 15.7701 20.2186C15.4008 21.1765 15.1506 22.2707 15.0801 23.8725C15.0096 25.4744 14.994 25.9893 15.0018 30.0753C15.0096 34.1613 15.0276 34.6735 15.105 36.2787C15.1812 37.8793 15.435 38.9723 15.8094 39.9284C16.1943 40.9175 16.7094 41.7556 17.5443 42.5901C18.3792 43.4246 19.215 43.9371 20.205 44.3204C21.159 44.6903 22.2501 44.9425 23.8467 45.0126C25.4433 45.0827 25.9572 45.0989 30.0294 45.0911C34.1016 45.0833 34.6143 45.0652 36.2142 44.9891C37.8141 44.913 38.898 44.6566 39.8514 44.2828C40.8375 43.8958 41.6736 43.38 42.5049 42.5422C43.3362 41.7045 43.848 40.8649 44.2293 39.8736C44.5989 38.9166 44.85 37.8222 44.9193 36.2218C44.9892 34.6157 45.0057 34.103 44.9979 30.0175C44.9901 25.9321 44.9718 25.4199 44.8959 23.8154C44.82 22.2108 44.5659 21.1211 44.1918 20.1645C43.8063 19.1753 43.2918 18.3378 42.4572 17.5027C41.6226 16.6677 40.785 16.1546 39.7971 15.773C38.8425 15.4026 37.752 15.1501 36.1554 15.0809C34.5588 15.0116 34.0449 14.9939 29.9712 15.0017C25.8975 15.0095 25.3875 15.027 23.7876 15.1052ZM23.9628 42.3057C22.5003 42.2419 21.7062 41.9982 21.177 41.7941C20.4762 41.5233 19.977 41.1959 19.4496 40.672C18.9222 40.148 18.5982 39.6455 18.3246 38.944C18.1191 38.4132 17.8716 37.6175 17.8032 36.1505C17.7288 34.5649 17.7132 34.0888 17.7045 30.0717C17.6958 26.0546 17.7111 25.5791 17.7804 23.9929C17.8428 22.5271 18.0873 21.7296 18.2904 21.1991C18.5604 20.4952 18.8856 19.9953 19.4091 19.4666C19.9326 18.9379 20.4321 18.6123 21.132 18.3378C21.6606 18.1308 22.4538 17.8846 23.9157 17.8148C25.4976 17.7396 25.9716 17.7245 29.9757 17.7158C33.9798 17.7071 34.455 17.7221 36.0375 17.7919C37.4988 17.8557 38.2941 18.0986 38.8224 18.3035C39.5235 18.5744 40.0224 18.8997 40.5495 19.4257C41.0766 19.9517 41.4015 20.451 41.6751 21.1545C41.8818 21.6833 42.1272 22.4786 42.1962 23.946C42.2715 25.5328 42.2886 26.0085 42.2958 30.0248C42.303 34.041 42.2889 34.5179 42.2196 36.1035C42.1557 37.5706 41.9133 38.3674 41.7096 38.8989C41.4396 39.6016 41.1141 40.1026 40.5903 40.631C40.0665 41.1595 39.5676 41.4851 38.8674 41.7595C38.3394 41.9663 37.5453 42.213 36.0846 42.2828C34.5027 42.3575 34.0287 42.3731 30.0231 42.3818C26.0175 42.3906 25.545 42.3743 23.9631 42.3057M36.1911 22.0047C36.1917 22.3618 36.2978 22.7107 36.4961 23.0073C36.6944 23.3039 36.976 23.5349 37.3051 23.671C37.6343 23.8071 37.9963 23.8422 38.3454 23.7719C38.6945 23.7016 39.0149 23.529 39.2662 23.276C39.5175 23.023 39.6883 22.701 39.7571 22.3506C39.8259 22.0002 39.7896 21.6372 39.6527 21.3075C39.5158 20.9778 39.2846 20.6962 38.9882 20.4984C38.6917 20.3006 38.3435 20.1954 37.9875 20.1961C37.5102 20.197 37.0528 20.3881 36.7159 20.7273C36.3791 21.0664 36.1903 21.5259 36.1911 22.0047ZM22.2981 30.0615C22.3065 34.3287 25.7613 37.78 30.0144 37.7719C34.2675 37.7638 37.7106 34.2986 37.7025 30.0314C37.6944 25.7642 34.2387 22.3119 29.985 22.3203C25.7313 22.3288 22.29 25.7949 22.2981 30.0615ZM24.9999 30.056C24.9979 29.0641 25.2892 28.0938 25.837 27.2679C26.3848 26.442 27.1645 25.7976 28.0774 25.4161C28.9903 25.0347 29.9954 24.9334 30.9657 25.125C31.936 25.3166 32.8279 25.7925 33.5286 26.4925C34.2292 27.1926 34.7072 28.0853 34.902 29.0579C35.0969 30.0304 34.9999 31.0391 34.6232 31.9563C34.2466 32.8736 33.6073 33.6582 32.7861 34.2109C31.9649 34.7637 30.9988 35.0598 30.0099 35.0617C29.3532 35.0631 28.7027 34.9347 28.0956 34.6839C27.4884 34.4331 26.9364 34.0647 26.4712 33.5999C26.0059 33.1351 25.6366 32.5828 25.3841 31.9748C25.1316 31.3667 25.0011 30.7147 24.9999 30.056Z" fill="white"/>
</svg>
